# LM2 evidence probe OBJ
mtllib BODY.HQR_19.mtl
o lm2_model
v 0.000000 0.000000 0.000000
v 0.000000 4.950000 0.000000
v -15.000000 154.950000 9.900000
v 0.000000 84.900000 4.950000
v 0.000000 89.850000 4.950000
v 19.950000 64.950000 4.950000
v -19.950000 64.950000 4.950000
v 0.000000 92.850000 24.900000
v 0.000000 87.900000 24.900000
v -19.950000 84.900000 19.950000
v 19.950000 84.900000 19.950000
v -19.950000 89.850000 19.950000
v 19.950000 89.850000 19.950000
v 24.900000 129.750000 0.000000
v 0.000000 89.850000 -15.000000
v 0.000000 84.900000 -15.000000
v -19.950000 79.950000 -4.950000
v 19.950000 79.950000 -4.950000
v -15.000000 84.900000 -10.050000
v 15.000000 84.900000 -10.050000
v -19.950000 84.900000 0.000000
v 19.950000 84.900000 0.000000
v -9.000000 144.750000 14.850000
v -15.900000 145.800000 7.950000
v 15.900000 145.800000 7.950000
v 4.950000 144.750000 14.850000
v -4.950000 144.750000 14.850000
v 0.000000 151.800000 9.900000
v -4.950000 149.850000 4.950000
v 4.950000 149.850000 4.950000
v 4.950000 134.850000 19.950000
v 15.000000 139.800000 -4.050000
v -15.000000 139.800000 -4.050000
v -4.950000 134.850000 19.950000
v 19.950000 134.850000 4.950000
v -19.950000 134.850000 4.950000
v 0.000000 114.750000 24.900000
v 0.000000 129.750000 -10.050000
v 19.950000 134.850000 14.850000
v -19.950000 134.850000 14.850000
v 0.000000 104.850000 -15.000000
v 9.900000 144.750000 14.850000
v -9.900000 144.750000 14.850000
v 12.000000 134.850000 18.900000
v -12.000000 134.850000 18.900000
v 19.950000 104.850000 -13.050000
v 29.850000 134.850000 9.900000
v 29.850000 134.850000 0.000000
v 34.950000 124.950000 0.000000
v 34.950000 124.950000 9.900000
v 24.900000 124.950000 14.850000
v 24.900000 124.950000 -7.950000
v 29.850000 99.900000 4.950000
v 24.900000 109.950000 14.850000
v 40.950000 104.850000 9.900000
v 40.950000 104.850000 0.000000
v 29.850000 104.850000 -10.050000
v 34.800000 69.900000 4.950000
v 40.800000 79.950000 14.850000
v 40.800000 79.950000 -1.950000
v -19.950000 104.850000 -13.050000
v -29.850000 134.850000 0.000000
v -29.850000 134.850000 9.900000
v -34.950000 124.950000 9.900000
v -34.950000 124.950000 0.000000
v -24.900000 124.950000 14.850000
v -24.900000 124.950000 -7.950000
v -29.850000 99.900000 4.950000
v -40.950000 104.850000 9.900000
v -40.950000 104.850000 0.000000
v -29.850000 104.850000 -10.050000
v -24.900000 109.950000 14.850000
v -34.800000 69.900000 4.950000
v -40.800000 79.950000 -4.950000
v -40.800000 79.950000 14.850000
v 4.950000 49.950000 -19.950000
v 10.050000 64.950000 27.900000
v 29.850000 64.950000 14.850000
v 24.900000 45.000000 -4.950000
v 24.900000 64.950000 -4.950000
v 19.950000 40.050000 4.950000
v 4.950000 10.050000 -25.050000
v 10.050000 40.050000 27.900000
v 15.000000 7.050000 -10.050000
v 31.950000 40.050000 14.850000
v 29.850000 10.050000 14.850000
v 10.050000 10.050000 24.900000
v 19.950000 10.050000 -19.950000
v 29.850000 10.050000 -4.950000
v 10.050000 10.050000 0.000000
v 19.950000 3.150000 14.850000
v 15.000000 0.150000 -10.050000
v 10.050000 0.150000 19.950000
v 19.950000 0.150000 14.850000
v 10.050000 0.150000 -10.050000
v 10.050000 3.150000 19.950000
v 10.050000 7.050000 -10.050000
v -19.950000 40.050000 4.950000
v -29.850000 64.950000 14.850000
v -10.050000 64.950000 27.900000
v -24.900000 45.000000 -4.950000
v -24.900000 64.950000 -4.950000
v -4.950000 49.950000 -19.950000
v -10.050000 40.050000 27.900000
v -15.000000 7.050000 -10.050000
v -31.950000 40.050000 14.850000
v -29.850000 10.050000 14.850000
v -10.050000 10.050000 24.900000
v -19.950000 10.050000 -19.950000
v -29.850000 10.050000 -4.950000
v -4.950000 10.050000 -25.050000
v -10.050000 10.050000 0.000000
v -15.000000 0.150000 -10.050000
v -10.050000 0.150000 19.950000
v -19.950000 0.150000 14.850000
v -10.050000 0.150000 -10.050000
v -10.050000 3.150000 19.950000
v -19.950000 3.150000 14.850000
v -10.050000 7.050000 -10.050000
v -9.900000 159.750000 19.800000
v 0.000000 184.800000 -10.050000
v 0.000000 159.750000 4.950000
v 0.000000 154.800000 14.850000
v 0.000000 164.700000 0.000000
v 0.000000 155.700000 21.900000
v 0.000000 164.700000 29.850000
v -6.900000 184.800000 14.850000
v 0.000000 182.700000 -2.100000
v 0.000000 174.750000 -5.100000
v 9.900000 164.700000 4.950000
v -9.900000 164.700000 4.950000
v -13.950000 164.700000 14.850000
v 13.950000 164.700000 14.850000
v -7.950000 164.700000 24.900000
v 7.950000 164.700000 24.900000
v -15.000000 174.750000 4.950000
v 13.950000 174.750000 4.950000
v 4.950000 159.750000 9.900000
v 9.900000 159.750000 19.800000
v -4.950000 159.750000 9.900000
v 0.000000 158.700000 27.900000
v 12.000000 181.800000 4.950000
v -12.000000 181.800000 4.950000
v 0.000000 185.700000 4.950000
v 0.000000 174.750000 14.850000
v -13.950000 175.800000 16.800000
v 12.900000 175.800000 16.800000
v 6.900000 184.800000 14.850000
v -6.900000 181.800000 19.800000
v 6.900000 181.800000 19.800000
v -3.900000 181.800000 20.850000
v 3.900000 181.800000 20.850000
v -9.900000 175.800000 20.850000
v -9.000000 171.750000 23.850000
v -4.950000 171.750000 24.900000
v -3.000000 173.700000 24.900000
v 9.900000 175.800000 20.850000
v 9.000000 171.750000 23.850000
v 4.950000 171.750000 24.900000
v 3.000000 173.700000 24.900000
v -3.000000 175.800000 22.800000
v 3.000000 175.800000 22.800000
v 0.900000 172.800000 27.900000
v -0.900000 172.800000 27.900000
v -0.900000 169.800000 28.800000
v 0.900000 169.800000 28.800000
v -9.900000 182.700000 14.850000
v 9.900000 182.700000 14.850000
v -7.950000 172.800000 23.850000
v -4.950000 172.800000 24.900000
v -4.950000 175.800000 23.850000
v -7.950000 175.800000 22.800000
v 4.950000 172.800000 24.900000
v 4.950000 175.800000 23.850000
v 7.950000 175.800000 22.800000
v 7.950000 172.800000 23.850000
v -4.950000 176.700000 22.800000
v -7.950000 176.700000 21.900000
v 4.950000 176.700000 22.800000
v 7.950000 176.700000 21.900000
v 0.000000 179.850000 -19.950000
v 0.000000 172.950000 -22.950000
v -6.000000 134.850000 20.850000
v 6.000000 134.850000 20.850000
v 9.000000 144.750000 14.850000
v 0.000000 129.750000 23.850000
v 0.000000 121.800000 25.800000
v 0.000000 115.800000 26.850000
v -6.000000 127.800000 23.850000
v 6.000000 127.800000 23.850000
v -7.950000 122.850000 24.750000
v 7.950000 122.850000 24.750000
v 6.000000 117.750000 25.800000
v -6.000000 117.750000 25.800000
v -29.850000 69.900000 4.950000
v -15.000000 150.000000 9.900000
v 5.100000 63.900000 54.900000
v 5.100000 63.000000 54.900000
v -9.900000 63.900000 45.000000
v -7.800000 57.000000 54.900000
v 18.000000 91.950000 57.900000
v 16.050000 91.950000 56.850000
v 15.000000 91.950000 55.800000
v 15.000000 91.950000 54.900000
v 16.050000 91.950000 54.000000
v 18.000000 91.950000 52.950000
v 20.100000 91.950000 54.000000
v 21.000000 91.950000 54.900000
v 20.100000 91.950000 56.850000
v 16.050000 79.950000 58.800000
v 13.050000 81.000000 57.900000
v 12.000000 81.000000 55.800000
v 12.000000 81.000000 54.000000
v 13.050000 81.000000 51.900000
v 16.050000 79.950000 51.000000
v 18.000000 78.900000 51.900000
v 20.100000 78.900000 54.000000
v 20.100000 78.900000 55.800000
v 18.000000 78.900000 57.900000
v 10.050000 69.000000 60.900000
v 7.050000 72.000000 59.850000
v 5.100000 72.900000 55.800000
v 5.100000 72.900000 54.000000
v 7.050000 72.000000 49.950000
v 10.050000 69.000000 48.900000
v 14.100000 66.900000 49.950000
v 16.050000 64.950000 54.000000
v 16.050000 64.950000 55.800000
v 14.100000 66.900000 59.850000
v -7.800000 56.100000 66.900000
v -9.900000 63.900000 64.800000
v -11.850000 66.900000 57.900000
v -11.850000 66.900000 51.900000
v -7.800000 56.100000 42.900000
v -5.850000 49.050000 45.000000
v -3.900000 45.000000 51.900000
v -3.900000 45.000000 57.900000
v -5.850000 49.050000 64.800000
v -19.800000 54.000000 71.850000
v -19.800000 64.950000 67.800000
v -19.800000 69.900000 59.850000
v -19.800000 69.900000 49.950000
v -19.800000 64.950000 42.000000
v -19.800000 54.000000 37.950000
v -19.800000 44.100000 42.000000
v -19.800000 38.100000 49.950000
v -19.800000 38.100000 59.850000
v -19.800000 44.100000 67.800000
v 2.100000 62.100000 63.900000
v 0.150000 64.950000 61.800000
v -1.800000 67.950000 56.850000
v -1.800000 67.950000 52.950000
v 0.150000 64.950000 48.000000
v 2.100000 62.100000 45.900000
v 5.100000 58.050000 48.000000
v 7.050000 55.050000 52.950000
v 7.050000 55.050000 56.850000
v 5.100000 58.050000 61.800000
vt 235.375000 -243.238281
vt 237.718750 -249.078125
vt 237.718750 -237.386719
vt 254.089844 -243.238281
vt 251.753906 -237.386719
vt 251.753906 -249.078125
vt 244.734375 -235.625000
vt 237.718750 -237.386719
vt 244.734375 -244.398438
vt 244.734375 -235.625000
vt 244.734375 -244.398438
vt 251.753906 -237.386719
vt 244.734375 -244.398438
vt 237.718750 -237.386719
vt 237.718750 -249.078125
vt 244.734375 -252.003906
vt 244.734375 -244.398438
vt 237.718750 -249.078125
vt 244.734375 -252.003906
vt 251.753906 -249.078125
vt 244.734375 -244.398438
vt 244.734375 -244.398438
vt 251.753906 -249.078125
vt 251.753906 -237.386719
usemtl lm2_palette_224
f 243 244 200
usemtl lm2_palette_224
f 244 245 200
usemtl lm2_palette_224
f 245 246 200
usemtl lm2_palette_224
f 246 247 200
usemtl lm2_palette_224
f 248 200 247
usemtl lm2_palette_224
f 239 200 248
usemtl lm2_palette_224
f 240 200 239
usemtl lm2_palette_224
f 242 243 200
usemtl lm2_palette_224
f 241 242 200
usemtl lm2_palette_224
f 241 200 240
usemtl lm2_palette_224
f 208 207 209
usemtl lm2_palette_197
f 169 170 171 172
usemtl lm2_palette_197
f 174 173 176 175
usemtl lm2_palette_224
f 203 202 205 204
usemtl lm2_palette_224
f 202 201 206 205
usemtl lm2_palette_224
f 207 206 201 209
usemtl lm2_palette_218
f 161 171 156
usemtl lm2_palette_218
f 162 160 174
usemtl lm2_palette_218
f 160 173 174
usemtl lm2_palette_218
f 156 171 170
usemtl lm2_palette_218
f 169 154 170
usemtl lm2_palette_218
f 176 173 158
usemtl lm2_palette_218
f 176 158 157
usemtl lm2_palette_218
f 169 153 154
usemtl lm2_palette_218
f 172 153 169
usemtl lm2_palette_218
f 175 176 157
usemtl lm2_palette_218
f 171 161 177
usemtl lm2_palette_218
f 178 153 172
usemtl lm2_palette_218
f 174 179 162
usemtl lm2_palette_218
f 180 175 157
usemtl lm2_palette_080
f 113 116 114 115
usemtl lm2_palette_080
f 94 93 95 92
usemtl lm2_palette_218
f 179 174 175 180
usemtl lm2_palette_218
f 178 172 171 177
usemtl lm2_palette_032
f 144 128 143
usemtl lm2_palette_032
f 144 142 128
usemtl lm2_palette_032
f 128 142 129
usemtl lm2_palette_032
f 128 129 143
usemtl lm2_palette_032
f 143 129 136
usemtl lm2_palette_032
f 142 137 129
usemtl lm2_palette_032
f 124 129 130
usemtl lm2_palette_032
f 124 131 129
usemtl lm2_palette_032
f 137 130 129
usemtl lm2_palette_032
f 131 136 129
usemtl lm2_palette_032
f 122 124 130
usemtl lm2_palette_032
f 124 122 131
usemtl lm2_palette_032
f 138 122 130
usemtl lm2_palette_032
f 140 131 122
usemtl lm2_palette_032
f 125 139 141
usemtl lm2_palette_032
f 125 141 120
usemtl lm2_palette_032
f 125 123 139
usemtl lm2_palette_032
f 125 120 123
usemtl lm2_palette_032
f 138 139 123
usemtl lm2_palette_032
f 140 123 120
usemtl lm2_palette_032
f 131 140 132
usemtl lm2_palette_032
f 120 132 140
usemtl lm2_palette_032
f 139 138 133
usemtl lm2_palette_032
f 130 133 138
usemtl lm2_palette_032
f 139 133 135
usemtl lm2_palette_032
f 120 134 132
usemtl lm2_palette_032
f 126 141 135
usemtl lm2_palette_032
f 134 120 141
usemtl lm2_palette_032
f 135 141 139
usemtl lm2_palette_032
f 130 137 133
usemtl lm2_palette_032
f 131 132 136
usemtl lm2_palette_032
f 132 134 146
usemtl lm2_palette_032
f 133 147 135
usemtl lm2_palette_032
f 147 133 137
usemtl lm2_palette_032
f 146 136 132
usemtl lm2_palette_032
f 137 142 147
usemtl lm2_palette_032
f 136 146 143
usemtl lm2_palette_192
f 47 48 25
usemtl lm2_palette_192
f 29 24 27
usemtl lm2_palette_192
f 30 26 25
usemtl lm2_palette_192
f 39 47 25
usemtl lm2_palette_192
f 24 40 27
usemtl lm2_palette_192
f 25 26 39
usemtl lm2_palette_192
f 34 27 40
usemtl lm2_palette_192
f 31 39 26
usemtl lm2_palette_192
f 40 66 34
usemtl lm2_palette_192
f 39 31 51
usemtl lm2_palette_032
f 126 134 141
usemtl lm2_palette_192
f 25 32 30
usemtl lm2_palette_192
f 24 29 33
usemtl lm2_palette_032
f 27 26 123
usemtl lm2_palette_032
f 26 30 123
usemtl lm2_palette_032
f 27 123 29
usemtl lm2_palette_032
f 140 29 123
usemtl lm2_palette_032
f 138 123 30
usemtl lm2_palette_032
f 138 30 122
usemtl lm2_palette_032
f 122 29 140
usemtl lm2_palette_032
f 30 29 122
usemtl lm2_palette_192
f 40 24 63
usemtl lm2_palette_192
f 63 24 62
usemtl lm2_palette_192
f 32 25 48
usemtl lm2_palette_192
f 33 62 24
usemtl lm2_palette_192
f 40 63 66
usemtl lm2_palette_192
f 39 51 47
usemtl lm2_palette_192
f 50 47 51
usemtl lm2_palette_192
f 64 66 63
usemtl lm2_palette_192
f 34 37 31
usemtl lm2_palette_192
f 65 62 67
usemtl lm2_palette_192
f 49 52 48
usemtl lm2_palette_192
f 48 52 32
usemtl lm2_palette_192
f 62 33 67
usemtl lm2_palette_192
f 33 38 67
usemtl lm2_palette_192
f 32 52 38
usemtl lm2_palette_192
f 38 33 32
usemtl lm2_palette_192
f 31 37 51
usemtl lm2_palette_192
f 34 66 37
usemtl lm2_palette_192
f 72 66 69
usemtl lm2_palette_192
f 54 55 51
usemtl lm2_palette_192
f 50 51 55
usemtl lm2_palette_192
f 64 69 66
usemtl lm2_palette_192
f 65 67 70
usemtl lm2_palette_192
f 49 56 52
usemtl lm2_palette_192
f 57 52 56
usemtl lm2_palette_192
f 71 70 67
usemtl lm2_palette_192
f 72 37 66
usemtl lm2_palette_192
f 54 51 37
usemtl lm2_palette_192
f 37 8 54
usemtl lm2_palette_192
f 37 72 8
usemtl lm2_palette_192
f 13 54 8
usemtl lm2_palette_192
f 12 8 72
usemtl lm2_palette_192
f 55 54 59
usemtl lm2_palette_192
f 69 75 72
usemtl lm2_palette_192
f 13 59 54
usemtl lm2_palette_192
f 12 72 75
usemtl lm2_palette_192
f 78 77 85
usemtl lm2_palette_192
f 99 106 100
usemtl lm2_palette_192
f 104 100 106
usemtl lm2_palette_192
f 83 85 77
usemtl lm2_palette_192
f 77 9 100
usemtl lm2_palette_192
f 11 9 77
usemtl lm2_palette_192
f 10 100 9
usemtl lm2_palette_192
f 11 77 78
usemtl lm2_palette_192
f 10 99 100
usemtl lm2_palette_192
f 83 87 85
usemtl lm2_palette_192
f 104 106 108
usemtl lm2_palette_192
f 86 85 87
usemtl lm2_palette_192
f 107 108 106
usemtl lm2_palette_192
f 56 60 57
usemtl lm2_palette_192
f 70 71 74
usemtl lm2_palette_192
f 22 57 60
usemtl lm2_palette_192
f 21 74 71
usemtl lm2_palette_192
f 107 106 110
usemtl lm2_palette_192
f 86 89 85
usemtl lm2_palette_192
f 79 85 89
usemtl lm2_palette_192
f 101 110 106
usemtl lm2_palette_192
f 110 101 109
usemtl lm2_palette_192
f 89 88 79
usemtl lm2_palette_192
f 79 88 76
usemtl lm2_palette_192
f 82 76 88
usemtl lm2_palette_192
f 106 99 101
usemtl lm2_palette_192
f 85 79 78
usemtl lm2_palette_192
f 102 99 17
usemtl lm2_palette_192
f 80 18 78
usemtl lm2_palette_192
f 80 78 79
usemtl lm2_palette_192
f 102 101 99
usemtl lm2_palette_192
f 80 76 16
usemtl lm2_palette_192
f 79 76 80
usemtl lm2_palette_192
f 10 17 99
usemtl lm2_palette_192
f 11 78 18
usemtl lm2_palette_192
f 18 80 16
usemtl lm2_palette_192
f 17 16 102
usemtl lm2_palette_192
f 52 46 38
usemtl lm2_palette_192
f 67 38 61
usemtl lm2_palette_192
f 57 46 52
usemtl lm2_palette_192
f 71 67 61
usemtl lm2_palette_192
f 46 57 22
usemtl lm2_palette_192
f 61 21 71
usemtl lm2_palette_192
f 19 61 15
usemtl lm2_palette_192
f 20 15 46
usemtl lm2_palette_192
f 19 21 61
usemtl lm2_palette_192
f 20 46 22
usemtl lm2_palette_080
f 10 12 17
usemtl lm2_palette_080
f 11 18 13
usemtl lm2_palette_080
f 22 13 18
usemtl lm2_palette_080
f 21 17 12
usemtl lm2_palette_192
f 75 74 12
usemtl lm2_palette_192
f 21 12 74
usemtl lm2_palette_192
f 59 13 60
usemtl lm2_palette_080
f 18 20 22
usemtl lm2_palette_080
f 17 21 19
usemtl lm2_palette_080
f 19 16 17
usemtl lm2_palette_080
f 20 18 16
usemtl lm2_palette_080
f 16 15 20
usemtl lm2_palette_080
f 16 19 15
usemtl lm2_palette_080
f 9 8 10
usemtl lm2_palette_080
f 9 11 8
usemtl lm2_palette_080
f 13 8 11
usemtl lm2_palette_080
f 12 10 8
usemtl lm2_palette_192
f 22 60 13
usemtl lm2_palette_192
f 76 103 16
usemtl lm2_palette_192
f 102 16 103
usemtl lm2_palette_192
f 101 102 103
usemtl lm2_palette_192
f 101 103 109
usemtl lm2_palette_192
f 111 109 103
usemtl lm2_palette_192
f 82 111 76
usemtl lm2_palette_192
f 103 76 111
usemtl lm2_palette_192
f 100 104 77
usemtl lm2_palette_192
f 83 77 104
usemtl lm2_palette_192
f 104 108 83
usemtl lm2_palette_192
f 87 83 108
usemtl lm2_palette_192
f 41 38 46
usemtl lm2_palette_192
f 41 61 38
usemtl lm2_palette_192
f 41 46 15
usemtl lm2_palette_192
f 41 15 61
usemtl lm2_palette_192
f 107 112 108
usemtl lm2_palette_192
f 110 112 107
usemtl lm2_palette_192
f 110 109 112
usemtl lm2_palette_192
f 109 111 112
usemtl lm2_palette_192
f 88 90 82
usemtl lm2_palette_192
f 89 90 88
usemtl lm2_palette_192
f 89 86 90
usemtl lm2_palette_192
f 87 90 86
usemtl lm2_palette_192
f 111 82 112
usemtl lm2_palette_192
f 90 112 82
usemtl lm2_palette_192
f 112 90 108
usemtl lm2_palette_192
f 87 108 90
usemtl lm2_palette_032
f 144 127 148
usemtl lm2_palette_032
f 148 142 144
usemtl lm2_palette_032
f 127 144 143
usemtl lm2_palette_032
f 163 166 160
usemtl lm2_palette_032
f 164 156 165
usemtl lm2_palette_032
f 166 165 126
usemtl lm2_palette_032
f 126 165 134
usemtl lm2_palette_032
f 126 135 166
usemtl lm2_palette_032
f 159 160 166
usemtl lm2_palette_032
f 156 155 165
usemtl lm2_palette_032
f 159 166 135
usemtl lm2_palette_032
f 155 134 165
usemtl lm2_palette_032
f 158 135 147
usemtl lm2_palette_032
f 154 146 134
usemtl lm2_palette_032
f 154 134 155
usemtl lm2_palette_032
f 158 159 135
usemtl lm2_palette_032
f 153 146 154
usemtl lm2_palette_032
f 157 158 147
usemtl lm2_palette_032
f 150 157 168
usemtl lm2_palette_032
f 149 167 153
usemtl lm2_palette_032
f 150 148 152
usemtl lm2_palette_032
f 149 151 127
usemtl lm2_palette_032
f 146 153 167
usemtl lm2_palette_032
f 127 167 149
usemtl lm2_palette_032
f 148 150 168
usemtl lm2_palette_032
f 147 168 157
usemtl lm2_palette_032
f 168 147 142
usemtl lm2_palette_032
f 167 143 146
usemtl lm2_palette_032
f 167 127 143
usemtl lm2_palette_032
f 168 142 148
usemtl lm2_palette_032
f 170 155 156
usemtl lm2_palette_032
f 173 160 159
usemtl lm2_palette_032
f 159 158 173
usemtl lm2_palette_032
f 155 170 154
usemtl lm2_palette_032
f 178 149 153
usemtl lm2_palette_032
f 180 157 150
usemtl lm2_palette_032
f 177 161 151
usemtl lm2_palette_032
f 179 152 162
usemtl lm2_palette_192
f 63 62 65 64
usemtl lm2_palette_192
f 48 47 50 49
usemtl lm2_palette_192
f 30 32 33 29
usemtl lm2_palette_192
f 34 31 26 27
usemtl lm2_palette_192
f 49 50 55 56
usemtl lm2_palette_192
f 70 69 64 65
usemtl lm2_palette_192
f 74 75 69 70
usemtl lm2_palette_192
f 59 60 56 55
usemtl lm2_palette_080
f 117 114 116 119
usemtl lm2_palette_080
f 118 115 114 117
usemtl lm2_palette_080
f 105 113 115 118
usemtl lm2_palette_080
f 116 113 105 119
usemtl lm2_palette_080
f 118 117 119 105
usemtl lm2_palette_080
f 96 93 94 91
usemtl lm2_palette_080
f 91 94 92 84
usemtl lm2_palette_080
f 97 95 93 96
usemtl lm2_palette_080
f 92 95 97 84
usemtl lm2_palette_080
f 84 97 96 91
usemtl lm2_palette_032
f 163 160 156 164
usemtl lm2_palette_032
f 165 166 163 164
usemtl lm2_palette_032
f 161 156 160 162
usemtl lm2_palette_032
f 152 148 127 151
usemtl lm2_palette_032
f 162 152 151 161
usemtl lm2_palette_032
f 179 180 150 152
usemtl lm2_palette_032
f 178 177 151 149
usemtl lm2_palette_176
f 211 210 201
usemtl lm2_palette_176
f 202 211 201
usemtl lm2_palette_024
f 211 202 212
usemtl lm2_palette_176
f 203 212 202
usemtl lm2_palette_176
f 212 203 213
usemtl lm2_palette_176
f 204 213 203
usemtl lm2_palette_024
f 213 204 214
usemtl lm2_palette_176
f 204 205 214
usemtl lm2_palette_176
f 214 205 215
usemtl lm2_palette_176
f 206 215 205
usemtl lm2_palette_024
f 215 206 216
usemtl lm2_palette_176
f 206 207 216
usemtl lm2_palette_176
f 217 216 207
usemtl lm2_palette_176
f 207 208 217
usemtl lm2_palette_024
f 218 217 208
usemtl lm2_palette_024
f 210 219 209
usemtl lm2_palette_176
f 201 210 209
usemtl lm2_palette_024
f 221 220 210
usemtl lm2_palette_176
f 211 221 210
usemtl lm2_palette_176
f 221 211 222
usemtl lm2_palette_024
f 212 222 211
usemtl lm2_palette_024
f 222 212 223
usemtl lm2_palette_176
f 213 223 212
usemtl lm2_palette_176
f 223 213 224
usemtl lm2_palette_024
f 214 224 213
usemtl lm2_palette_024
f 224 214 225
usemtl lm2_palette_176
f 215 225 214
usemtl lm2_palette_176
f 225 215 226
usemtl lm2_palette_024
f 216 226 215
usemtl lm2_palette_024
f 226 216 227
usemtl lm2_palette_176
f 216 217 227
usemtl lm2_palette_176
f 227 217 228
usemtl lm2_palette_024
f 218 228 217
usemtl lm2_palette_024
f 229 228 218
usemtl lm2_palette_176
f 219 229 218
usemtl lm2_palette_176
f 229 219 220
usemtl lm2_palette_024
f 210 220 219
usemtl lm2_palette_176
f 250 249 220
usemtl lm2_palette_024
f 221 250 220
usemtl lm2_palette_024
f 250 221 251
usemtl lm2_palette_176
f 222 251 221
usemtl lm2_palette_176
f 251 222 252
usemtl lm2_palette_024
f 223 252 222
usemtl lm2_palette_024
f 252 223 253
usemtl lm2_palette_176
f 224 253 223
usemtl lm2_palette_176
f 253 224 254
usemtl lm2_palette_024
f 225 254 224
usemtl lm2_palette_024
f 254 225 255
usemtl lm2_palette_176
f 225 226 255
usemtl lm2_palette_176
f 255 226 256
usemtl lm2_palette_024
f 227 256 226
usemtl lm2_palette_024
f 256 227 257
usemtl lm2_palette_176
f 228 257 227
usemtl lm2_palette_176
f 257 228 258
usemtl lm2_palette_024
f 229 258 228
usemtl lm2_palette_024
f 258 229 249
usemtl lm2_palette_176
f 220 249 229
usemtl lm2_palette_024
f 230 249 231
usemtl lm2_palette_176
f 250 231 249
usemtl lm2_palette_176
f 231 250 232
usemtl lm2_palette_024
f 251 232 250
usemtl lm2_palette_024
f 232 251 233
usemtl lm2_palette_176
f 252 233 251
usemtl lm2_palette_176
f 233 252 199
usemtl lm2_palette_024
f 253 199 252
usemtl lm2_palette_024
f 199 253 234
usemtl lm2_palette_176
f 254 234 253
usemtl lm2_palette_176
f 234 254 235
usemtl lm2_palette_024
f 255 235 254
usemtl lm2_palette_024
f 235 255 236
usemtl lm2_palette_176
f 256 236 255
usemtl lm2_palette_176
f 236 256 237
usemtl lm2_palette_024
f 257 237 256
usemtl lm2_palette_024
f 237 257 238
usemtl lm2_palette_176
f 258 238 257
usemtl lm2_palette_176
f 230 238 258
usemtl lm2_palette_024
f 249 230 258
usemtl lm2_palette_176
f 239 230 240
usemtl lm2_palette_024
f 231 240 230
usemtl lm2_palette_024
f 240 231 241
usemtl lm2_palette_176
f 232 241 231
usemtl lm2_palette_176
f 241 232 242
usemtl lm2_palette_024
f 233 242 232
usemtl lm2_palette_024
f 242 233 243
usemtl lm2_palette_176
f 199 243 233
usemtl lm2_palette_176
f 243 199 244
usemtl lm2_palette_024
f 234 244 199
usemtl lm2_palette_024
f 244 234 245
usemtl lm2_palette_176
f 235 245 234
usemtl lm2_palette_176
f 245 235 246
usemtl lm2_palette_024
f 236 246 235
usemtl lm2_palette_024
f 246 236 247
usemtl lm2_palette_176
f 237 247 236
usemtl lm2_palette_176
f 247 237 248
usemtl lm2_palette_024
f 238 248 237
usemtl lm2_palette_024
f 248 238 239
usemtl lm2_palette_176
f 230 239 238
usemtl lm2_palette_176
f 209 218 208
usemtl lm2_palette_176
f 218 209 219
usemtl lm2_texture_000
f 191/1 194/2 189/3
usemtl lm2_texture_000
f 192/4 190/5 193/6
usemtl lm2_texture_000
f 186/7 189/8 187/9
usemtl lm2_texture_000
f 186/10 187/11 190/12
usemtl lm2_texture_000
f 187/13 189/14 194/15
usemtl lm2_texture_000
f 188/16 187/17 194/18
usemtl lm2_texture_000
f 188/19 193/20 187/21
usemtl lm2_texture_000
f 187/22 193/23 190/24
l 29 23
l 30 185
l 30 29
l 23 183
l 185 184
l 184 186
l 183 186
l 186 189
l 189 191
l 191 194
l 194 188
l 188 193
l 193 192
l 192 190
l 190 186
l 247 248
l 248 239
l 239 240
l 240 241
l 241 242
l 242 243
l 243 244
l 244 245
l 245 246
l 246 247
l 201 209
l 207 206
l 206 205
l 205 204
l 204 203
l 30 42
l 43 29
l 42 44
l 44 204
l 43 45
l 45 242
# sphere index=0 vertex=73 radius=45 palette_index=32 unknown=0
# sphere index=1 vertex=58 radius=45 palette_index=32 unknown=0
# sphere index=2 vertex=121 radius=64 palette_index=17 unknown=0
# sphere index=3 vertex=181 radius=46 palette_index=18 unknown=0
# sphere index=4 vertex=182 radius=32 palette_index=19 unknown=0
